<svg width="18" height="20" viewBox="0 0 18 20" fill="none" xmlns="http://www.w3.org/2000/svg">
<circle cx="8.64998" cy="5.05" r="4.05" stroke="#142F43" stroke-linecap="round" stroke-linejoin="round"/>
<path fill-rule="evenodd" clip-rule="evenodd" d="M1.00002 15.3966C0.998644 14.996 1.07898 14.6004 1.23494 14.2395C1.72435 13.1479 3.10451 12.5694 4.24974 12.3074C5.07568 12.1108 5.91303 11.9795 6.75555 11.9144C8.31542 11.7616 9.88429 11.7616 11.4442 11.9144C12.2866 11.9803 13.1239 12.1116 13.95 12.3074C15.0952 12.5694 16.4754 13.0933 16.9648 14.2395C17.2784 14.9751 17.2784 15.8291 16.9648 16.5646C16.4754 17.7108 15.0952 18.2348 13.95 18.4859C13.125 18.6906 12.2873 18.8256 11.4442 18.8897C10.1746 19.0098 8.89902 19.0317 7.62671 18.9552C7.33306 18.9552 7.0492 18.9552 6.75555 18.8897C5.91552 18.8264 5.08107 18.6913 4.25953 18.4859C3.10451 18.2348 1.73414 17.7108 1.23494 16.5646C1.07977 16.1996 0.999521 15.8006 1.00002 15.3966Z" stroke="#142F43" stroke-linecap="round" stroke-linejoin="round"/>
</svg>
