<svg width="19" height="20" viewBox="0 0 19 20" fill="none" xmlns="http://www.w3.org/2000/svg">
<path fill-rule="evenodd" clip-rule="evenodd" d="M5.62772 19.0001H13.4446C16.316 19.0001 18.5188 17.963 17.8931 13.7888L17.1645 8.13187C16.7788 6.04907 15.4503 5.25195 14.2846 5.25195H4.75346C3.57063 5.25195 2.31924 6.10907 1.87354 8.13187L1.14499 13.7888C0.613578 17.4916 2.75637 19.0001 5.62772 19.0001Z" stroke="#142F43" stroke-linecap="round" stroke-linejoin="round"/>
<path d="M5.49909 5.04563C5.49909 2.81131 7.31036 1.00004 9.54468 1.00004V1.00004C10.6206 0.995477 11.654 1.41969 12.4164 2.17889C13.1788 2.93808 13.6074 3.9697 13.6074 5.04563V5.04563" stroke="#142F43" stroke-linecap="round" stroke-linejoin="round"/>
<path fill-rule="evenodd" clip-rule="evenodd" d="M8.76227 9.10195C8.76227 8.56941 8.33055 8.1377 7.79801 8.1377H7.7123C7.17975 8.1377 6.74804 8.56941 6.74804 9.10195C6.74804 9.6345 7.17975 10.0662 7.7123 10.0662H7.79801C8.33055 10.0662 8.76227 9.6345 8.76227 9.10195Z" fill="#142F43"/>
<path fill-rule="evenodd" clip-rule="evenodd" d="M12.8572 9.10195C12.8572 8.56941 12.4255 8.1377 11.8929 8.1377H11.8072C11.2747 8.1377 10.8429 8.56941 10.8429 9.10195C10.8429 9.6345 11.2747 10.0662 11.8072 10.0662H11.8929C12.4255 10.0662 12.8572 9.6345 12.8572 9.10195Z" fill="#142F43"/>
</svg>
