<svg width="17" height="20" viewBox="0 0 17 20" fill="none" xmlns="http://www.w3.org/2000/svg">
<path fill-rule="evenodd" clip-rule="evenodd" d="M1.00074 11.6085V11.4114C1.02966 10.8283 1.21654 10.2633 1.54213 9.77474C2.08406 9.1878 2.45505 8.46855 2.61616 7.69245C2.61616 7.09262 2.61616 6.48421 2.66855 5.88438C2.93924 2.9966 5.7946 1 8.61503 1H8.68489C11.5053 1 14.3607 2.9966 14.6401 5.88438C14.6925 6.48421 14.6401 7.09262 14.6838 7.69245C14.847 8.47035 15.2177 9.19184 15.7578 9.78331C16.0858 10.2676 16.273 10.8305 16.2992 11.4114V11.6C16.3187 12.3834 16.0489 13.1473 15.5395 13.7508C14.8664 14.4565 13.953 14.8955 12.9723 14.9847C10.0964 15.2932 7.1948 15.2932 4.3189 14.9847C3.33925 14.8916 2.4272 14.4533 1.75169 13.7508C1.2502 13.1468 0.984016 12.3874 1.00074 11.6085Z" stroke="#142F43" stroke-linecap="round" stroke-linejoin="round"/>
<path d="M6.44946 17.9668C6.89881 18.5308 7.55869 18.8958 8.28305 18.9811C9.0074 19.0663 9.73651 18.8647 10.309 18.421C10.4851 18.2897 10.6435 18.1371 10.7805 17.9668" stroke="#142F43" stroke-linecap="round" stroke-linejoin="round"/>
</svg>
